<svg width="255" height="70" viewBox="0 0 255 70" fill="none" xmlns="http://www.w3.org/2000/svg">
<g clip-path="url(#clip0_397_3662)">
<path d="M175.531 37.006C176.66 38.2806 177.226 39.8602 177.226 41.7447C177.226 43.298 176.83 44.675 176.041 45.8734C175.25 47.0718 174.158 48.0081 172.764 48.6823C171.369 49.3565 169.757 49.6948 167.923 49.6948C166.09 49.6948 164.508 49.3565 163.026 48.6823C161.545 48.0081 160.289 47.0837 159.261 45.9115C158.231 44.7394 157.491 43.4267 157.04 41.9758L160.242 40.6368C160.921 42.4713 161.93 43.8793 163.273 44.8609C164.616 45.8424 166.191 46.3332 168.001 46.3332C169.104 46.3332 170.071 46.1545 170.9 45.7972C171.728 45.4398 172.374 44.9371 172.839 44.2867C173.304 43.6363 173.536 42.8787 173.536 42.0115C173.536 40.8131 173.203 39.8649 172.538 39.1645C171.874 38.464 170.9 37.9352 169.62 37.5778L164.461 35.972C162.428 35.3359 160.869 34.3281 159.792 32.9535C158.712 31.5764 158.172 29.9969 158.172 28.2148C158.172 26.6615 158.543 25.2916 159.282 24.1051C160.022 22.9211 161.052 21.9895 162.371 21.3153C163.688 20.6411 165.188 20.3028 166.872 20.3028C168.555 20.3028 170.078 20.6077 171.447 21.22C172.815 21.8323 173.975 22.6542 174.93 23.6858C175.883 24.7174 176.588 25.8967 177.041 27.2214L173.876 28.5603C173.273 26.9545 172.369 25.7371 171.165 24.9104C169.961 24.0837 168.541 23.6691 166.909 23.6691C165.904 23.6691 165.019 23.8407 164.254 24.1861C163.489 24.5292 162.897 25.0271 162.484 25.6775C162.071 26.3279 161.862 27.0975 161.862 27.9909C161.862 29.0368 162.188 29.9659 162.841 30.7807C163.494 31.5955 164.484 32.2197 165.818 32.6533L170.524 34.0685C172.733 34.757 174.402 35.7385 175.534 37.0108L175.531 37.006ZM207.419 49.2374H210.922V20.3028H207.419V49.2374ZM255 38.0781C255 38.3592 254.981 38.6713 254.944 39.0144C254.906 39.3575 254.861 39.6839 254.812 39.9888H239.281C239.328 41.0561 239.565 42.0186 239.993 42.8739C240.558 44.008 241.361 44.8871 242.403 45.5113C243.446 46.1355 244.582 46.4476 245.812 46.4476C247.169 46.4476 248.31 46.1283 249.239 45.4922C250.169 44.8561 250.92 44.0389 251.5 43.0455L254.437 44.575C254.035 45.5184 253.413 46.3785 252.573 47.1552C251.732 47.9318 250.739 48.5513 249.598 49.0087C248.455 49.4661 247.183 49.6972 245.777 49.6972C243.819 49.6972 242.072 49.2255 240.542 48.2821C239.011 47.341 237.805 46.0473 236.927 44.4035C236.047 42.7596 235.61 40.9203 235.61 38.881C235.61 36.8416 236.042 34.9833 236.908 33.3776C237.774 31.7718 238.955 30.5043 240.448 29.5752C241.941 28.646 243.617 28.1791 245.476 28.1791C246.983 28.1791 248.319 28.4531 249.488 29.001C250.655 29.549 251.648 30.2875 252.462 31.2167C253.277 32.1482 253.906 33.2036 254.345 34.3901C254.784 35.5742 255.005 36.8035 255.005 38.0781H255ZM239.955 34.8856C239.662 35.5051 239.464 36.1864 239.361 36.9298H251.228C251.211 36.1459 251.052 35.4193 250.746 34.7522C250.27 33.7087 249.566 32.8796 248.638 32.2673C247.709 31.6551 246.655 31.3501 245.474 31.3501C244.293 31.3501 243.213 31.6551 242.234 32.2673C241.256 32.8796 240.495 33.7516 239.955 34.8856ZM201.006 33.3752C201.922 34.9809 202.382 36.8273 202.382 38.9167C202.382 41.0061 201.905 42.8596 200.95 44.4773C199.994 46.095 198.734 47.3696 197.166 48.2987C195.595 49.2279 193.858 49.6925 191.95 49.6925C190.041 49.6925 188.222 49.2279 186.64 48.2987C185.057 47.3696 183.801 46.0878 182.874 44.4582C181.945 42.8287 181.48 40.9799 181.48 38.9167C181.48 36.8535 181.938 35.0191 182.855 33.4133C183.771 31.8075 185.02 30.5329 186.602 29.5919C188.184 28.6484 189.966 28.1767 191.95 28.1767C193.933 28.1767 195.677 28.6413 197.259 29.5728C198.842 30.5043 200.091 31.7694 201.006 33.3752ZM198.652 38.9191C198.652 37.5182 198.356 36.2746 197.767 35.193C197.175 34.1113 196.372 33.2441 195.356 32.5937C194.339 31.9433 193.203 31.6193 191.947 31.6193C190.691 31.6193 189.518 31.9433 188.501 32.5937C187.485 33.2441 186.675 34.109 186.071 35.193C185.468 36.277 185.168 37.5182 185.168 38.9191C185.168 40.32 185.468 41.5445 186.071 42.6643C186.675 43.7864 187.485 44.6655 188.501 45.3016C189.518 45.9377 190.668 46.257 191.947 46.257C193.227 46.257 194.339 45.9377 195.356 45.3016C196.372 44.6655 197.175 43.7864 197.767 42.6643C198.356 41.5422 198.652 40.2938 198.652 38.9191ZM224.175 44.2152L218.488 28.6365H214.57L222.516 49.2374H225.83L233.814 28.6365H229.896L224.173 44.2152H224.175ZM148.838 29.1726C147.695 28.5102 146.397 28.1791 144.942 28.1791C143.486 28.1791 142.122 28.5436 141.005 29.2679C140.237 29.7658 139.618 30.4043 139.141 31.1738V28.6365H135.714V49.2374H139.216V37.0441C139.216 35.922 139.43 34.9619 139.857 34.159C140.284 33.3561 140.866 32.7319 141.608 32.2864C142.348 31.8409 143.195 31.6169 144.151 31.6169C145.106 31.6169 145.951 31.8409 146.693 32.2864C147.432 32.7319 148.005 33.3513 148.406 34.1399C148.808 34.9309 149.01 35.8982 149.01 37.0441V49.2374H152.55V35.8982C152.55 34.4211 152.216 33.0964 151.552 31.9243C150.885 30.7521 149.982 29.8349 148.841 29.1726H148.838ZM101.145 34.0637L96.4384 32.6485C95.1073 32.2149 94.1167 31.5907 93.4641 30.7759C92.8115 29.9611 92.4852 29.0296 92.4852 27.9861C92.4852 27.0951 92.6918 26.3232 93.1073 25.6728C93.5205 25.0224 94.112 24.5268 94.8773 24.1814C95.6426 23.8383 96.5276 23.6644 97.5323 23.6644C99.1638 23.6644 100.582 24.0789 101.788 24.9056C102.992 25.7347 103.896 26.9498 104.5 28.5555L107.664 27.2166C107.211 25.892 106.509 24.7127 105.556 23.6811C104.6 22.6495 103.441 21.8275 102.072 21.2152C100.704 20.603 99.1778 20.298 97.4971 20.298C95.8163 20.298 94.3139 20.6363 92.997 21.3105C91.6801 21.9871 90.6495 22.9163 89.9077 24.1004C89.1659 25.2844 88.7974 26.6543 88.7974 28.2101C88.7974 29.9945 89.3373 31.5741 90.4171 32.9487C91.497 34.3258 93.0533 35.3311 95.0862 35.9673L100.246 37.573C101.528 37.9304 102.499 38.4593 103.164 39.1597C103.828 39.8602 104.162 40.8107 104.162 42.0067C104.162 42.8739 103.929 43.6315 103.464 44.2819C103 44.9324 102.354 45.435 101.525 45.7924C100.697 46.1498 99.7295 46.3285 98.6262 46.3285C96.8186 46.3285 95.2435 45.8377 93.9007 44.8561C92.558 43.8746 91.5462 42.4665 90.8678 40.6321L87.6659 41.971C88.1166 43.4243 88.8584 44.737 89.8889 45.9068C90.9171 47.0789 92.173 48.0033 93.6543 48.6775C95.1355 49.3518 96.767 49.6901 98.5511 49.6901C100.335 49.6901 101.997 49.3518 103.392 48.6775C104.786 48.0033 105.877 47.067 106.669 45.8686C107.46 44.6703 107.854 43.2956 107.854 41.7399C107.854 39.8554 107.288 38.2758 106.159 37.0012C105.03 35.7266 103.359 34.7451 101.15 34.0589L101.145 34.0637ZM126.171 40.8298C126.171 41.9519 125.965 42.9192 125.549 43.734C125.136 44.5488 124.556 45.173 123.817 45.6066C123.075 46.0402 122.228 46.257 121.274 46.257C120.321 46.257 119.474 46.0402 118.732 45.6066C117.99 45.173 117.415 44.575 117 43.8102C116.584 43.0455 116.378 42.1544 116.378 41.1348V28.6365H112.875V41.5183C112.875 43.1241 113.195 44.544 113.835 45.7805C114.476 47.017 115.38 47.9795 116.547 48.6656C117.713 49.3541 119.026 49.6972 120.483 49.6972C121.941 49.6972 123.277 49.3351 124.418 48.6084C125.195 48.1153 125.812 47.4863 126.282 46.7263V49.2374H129.709V28.6365H126.169V40.8298H126.171Z" fill="#9C9C9C"/>
<path d="M41.7097 50.9766L51.6136 40.9251C52.9423 39.5767 52.001 37.2705 50.123 37.2705H28.2047C27.5193 37.2705 26.862 37.5468 26.3761 38.0376L16.6271 47.9318C15.2984 49.2803 16.2397 51.5865 18.1177 51.5865H40.2543C40.7989 51.5865 41.32 51.3673 41.705 50.9766M41.7097 32.3793L51.6136 22.3278C52.9423 20.9794 52.001 18.6732 50.123 18.6732H28.2047C27.5193 18.6732 26.862 18.9496 26.3761 19.4427L16.6271 29.3346C15.2984 30.683 16.2397 32.9892 18.1177 32.9892H40.2543C40.7989 32.9892 41.32 32.77 41.705 32.3793M33.9936 0.5L44.2567 9.85581L58.0316 10.6063L58.771 24.5864L67.9895 35.0024L58.771 45.4184L58.0316 59.3985L44.2567 60.149L33.9936 69.5048L23.7305 60.149L9.95558 59.3985L9.21613 45.4184L0 35L9.21848 24.584L9.95793 10.6039L23.7328 9.85343L33.9936 0.5Z" fill="url(#paint0_linear_397_3662)"/>
</g>
<defs>
<linearGradient id="paint0_linear_397_3662" x1="-0.0316671" y1="69.5329" x2="67.7245" y2="2.76977" gradientUnits="userSpaceOnUse">
<stop stop-color="#D2226A"/>
<stop offset="0.13" stop-color="#FE672E"/>
<stop offset="0.5" stop-color="#FD9A08"/>
<stop offset="0.87" stop-color="#FEBF24"/>
</linearGradient>
<clipPath id="clip0_397_3662">
<rect width="255" height="69" fill="white" transform="translate(0 0.5)"/>
</clipPath>
</defs>
</svg>
